<?xml version="1.0" encoding="utf-8"?>
<!-- Generator: Adobe Illustrator 23.0.1, SVG Export Plug-In . SVG Version: 6.00 Build 0)  -->
<svg version="1.1" id="圖層_1" xmlns="http://www.w3.org/2000/svg" xmlns:xlink="http://www.w3.org/1999/xlink" x="0px" y="0px"
	 viewBox="0 0 841.9 595.3" style="enable-background:new 0 0 841.9 595.3;" xml:space="preserve">
<style type="text/css">
	.st0{display:none;}
	.st1{fill:#F5C53A;}
	.st2{fill:none;stroke:#F5C53A;stroke-miterlimit:10;}
	.st3{fill:none;stroke:#040000;stroke-miterlimit:10;}
	.st4{fill:#F5C939;}
</style>
<g class="st0">
	
		<image style="display:inline;overflow:visible;opacity:0.57;enable-background:new    ;" width="200" height="219" xlink:href="598AE83C.png"  transform="matrix(1.5912 0 0 1.5912 239.971 108.7826)">
	</image>
</g>
<g>
	<g id="XMLID_1_">
		<g>
			<path class="st1" d="M423.5,159.5c69.9,0,126.5,56.6,126.5,126.5s-56.6,126.5-126.5,126.5C353.7,412.5,297,355.9,297,286
				c0-16.6,3.2-32.4,9-46.9C324.7,192.4,370.3,159.5,423.5,159.5z M541.8,285.7c0.8-65.1-52.8-117.9-117.9-117.9
				c-1.8,0-3.5,0-5.3,0.1C355.9,170.6,306,222.3,306,285.6c0,65.1,52.8,117.2,117.9,117.9C488.7,404.2,541,352.3,541.8,285.7z"/>
		</g>
		<g>
			<path class="st2" d="M550,286c0,69.9-56.6,126.5-126.5,126.5C353.7,412.5,297,355.9,297,286c0-16.6,3.2-32.4,9-46.9
				c18.6-46.6,64.2-79.5,117.5-79.5C493.4,159.5,550,216.1,550,286z"/>
			<path class="st2" d="M541.8,285.7c-0.8,66.6-53.1,118.5-117.9,117.9C358.8,403,306,350.8,306,285.7c0-63.3,49.9-115,112.6-117.7
				c1.7-0.1,3.5-0.1,5.3-0.1C489,167.8,542.5,220.6,541.8,285.7z"/>
		</g>
	</g>
	<path class="st3" d="M48.3,263.3"/>
	<polygon class="st4" points="367.7,315.9 378.9,350.7 382.7,350.4 367.3,302 	"/>
	<polygon class="st1" points="366.5,279.8 388.9,349.9 392,349.6 366.1,269.1 	"/>
	<polygon class="st1" points="367.7,244.8 399,349.1 402.2,348.8 371,247.9 	"/>
	<polygon class="st1" points="379.7,256.4 409.2,348.2 412.5,348.2 384.9,261.4 	"/>
	<polygon class="st1" points="396.1,271.8 419,347.6 422.8,347.5 400,275.4 	"/>
	<path class="st1" d="M408.8,283.1c0.4,0.4,19.9,63.5,19.9,63.5h3.8l-19.9-60.4L408.8,283.1z"/>
	<polygon class="st1" points="423.9,294.7 439.3,346.7 442.8,346.9 426.9,296.9 	"/>
	<polygon class="st1" points="436.1,303.7 449.2,346.7 452.3,346.6 440.9,307.4 	"/>
	<polygon class="st1" points="449.3,313.6 459.7,346.4 463.5,346.3 454.3,317.2 	"/>
	<polygon class="st1" points="463.5,323.1 470.5,346.1 474.7,346 468.2,325.2 	"/>
	<polygon class="st1" points="475.9,329.3 480.2,345.8 483.7,345.7 479.8,331.1 	"/>
	<polygon class="st1" points="486.9,334.6 490.3,345.5 494,345.4 491.7,337 	"/>
	<path class="st1" d="M346.5,240.8c0,0-4.3,18.3-39.4,60.5l1.4,8.2c0,0,24-36.7,28.2-42.8c4.2-6.2,9.8-19,9.8-19V240.8z"/>
	<polygon class="st1" points="346.5,300.3 341.5,323.1 335.7,355.1 339.4,354.7 346.5,319.5 	"/>
	<polygon class="st1" points="344.3,252.5 335,309.5 326.8,351.7 329.1,355.1 330.7,357.7 342.7,283.1 346.5,261.3 346.5,247.7 	"/>
	<polygon class="st1" points="332.5,272.9 326.8,310.8 320.2,341.7 323,346.7 329.1,312.5 337.5,265.3 	"/>
	<path class="st1" d="M320.7,288.3c-1.5,12.8-3.6,29-6,41.7l3.3,7.2l8.8-55.7C326.8,281.6,320.7,288.3,320.7,288.3z"/>
	<path class="st1" d="M315.2,298.7c-0.6,1-4.8,18.7-4.5,19.6c2.7,9.3,1.9,6.5,1.4,4.8l6.8-30.5C319,292.6,315.3,298.7,315.2,298.7z"
		/>
	<path class="st1" d="M341.1,369.5h5.4v5l13.4,10.1v-15.1h2.8v16.9l10.7,5.8v-22.6h69.5l59.8,3.8l6.3-6.1l-90.3-2.9h93
		c1.1,0,4.6-5.3,5.5-6.3c5-5.7,8.2-12.4,11.8-19c-2.6,0.3-5.1-0.8-7.6-1.5c-2.6-0.7-5.2-1.4-7.8-2.1c-12.3-3.6-24.3-7.5-36-13
		c-11.7-5.6-22.8-12-33.8-18.9c-2.2-1.4-4.3-2.7-6.5-4.1c-10.6-6.8-20.9-13.6-30.6-21.6c-12.9-10.7-24.9-22.5-36.5-34.6
		c-1.5-1.6-3.7-4.2-5.2-5.7c-0.1,1.5-0.5,7.5,0.3,8.8c0.4,0.7,39.4,34.3,60.3,49.6c9.2,6.7,18.1,13.7,27.4,20.2s19,11.4,29.2,16.2
		c8.6,4,17,8.4,25.5,12.6l-92.7,2.8l-46,3.8l-4.5-128c-1.6-4.1-7-2.1-7,1.6c0,2.9,0.2,5.8,0.2,8.7c0.3,11,0.6,22,0.9,33
		c0.4,13.7,0.7,27.3,1.1,41c0.3,11.2,0.6,22.4,0.9,33.6c0.1,3.7,0.2,7.5,0.3,11.2l-3.3-0.3L356,222.5c-5.3-7.3-9.5,0-9.5,0v18.3V354
		l-17.4,1.7"/>
</g>
</svg>
