<svg xmlns="http://www.w3.org/2000/svg" viewBox="0 0 461.5 254.5"><defs><style>.cls-1,.cls-2{fill:none;stroke-miterlimit:10;}.cls-1{stroke:#040000;}.cls-2{stroke:#202020;}.cls-3{fill:#202020;}</style></defs><title>籃球場</title><g id="圖層_2" data-name="圖層 2"><rect class="cls-1" x="0.5" y="0.5" width="460.5" height="253.5"/><rect class="cls-1" x="21" y="21.63" width="403.16" height="215"/><line class="cls-2" x1="222.58" y1="21.63" x2="222.58" y2="236.63"/><path class="cls-2" d="M394.92,285.33" transform="translate(-172.34 -153.37)"/><circle class="cls-1" cx="221.58" cy="128.97" r="26.02"/><path class="cls-2" d="M193.34,193.67h31.33s45.66,1,70.66,45.66a88.22,88.22,0,0,1,9.5,59.47c-4.39,23.4-18.32,46.78-38.23,60.07-12.87,8.59-28.28,12.64-43.5,14.37-2.47.28-29.76.68-29.76.43Z" transform="translate(-172.34 -153.37)"/><path class="cls-1" d="M277,309.17v-51.5c0-.55,7.65,1.12,8.07,1.26a24.87,24.87,0,0,1,14,12c4.27,7.89,5,16.21.94,24.25-3.57,7.09-10.16,11.62-17.85,13.28A38.25,38.25,0,0,1,277,309.17Z" transform="translate(-172.34 -153.37)"/><line class="cls-1" x1="20.99" y1="86.3" x2="103.16" y2="104.19"/><path class="cls-1" d="M193.5,326.5,277,309.17c-8.1-.35-16.14-3.22-21-10-5-7.09-6-16.52-3.24-24.68,3.45-10.29,13.49-16.83,24.23-16.81" transform="translate(-172.34 -153.37)"/><line class="cls-1" x1="37.72" y1="116.63" x2="37.72" y2="143.13"/><circle class="cls-1" cx="44.39" cy="129.7" r="3.69"/><line class="cls-1" x1="37.72" y1="116.63" x2="37.72" y2="143.13"/><line class="cls-1" x1="38.12" y1="130.3" x2="40.49" y2="130.3"/><path class="cls-2" d="M596.44,193.67H565.11s-45.67,1-70.67,45.66c-22,39.35-9.33,88.54,25,116.21,8.24,6.63,20.4,13.4,31,15.13l18.34,3h27.66Z" transform="translate(-172.34 -153.37)"/><path class="cls-1" d="M512.78,309.17v-51.5c0-.55-7.65,1.12-8.07,1.26a24.92,24.92,0,0,0-14,12c-4.26,7.89-5,16.21-.93,24.25,3.57,7.09,10.16,11.62,17.85,13.28A38.25,38.25,0,0,0,512.78,309.17Z" transform="translate(-172.34 -153.37)"/><line class="cls-1" x1="424.1" y1="86.3" x2="341.94" y2="104.19"/><path class="cls-1" d="M596.28,326.5l-83.5-17.33c8.09-.35,16.14-3.22,21-10,5.06-7.09,6-16.52,3.25-24.68-3.45-10.29-13.49-16.83-24.23-16.81" transform="translate(-172.34 -153.37)"/><line class="cls-1" x1="407.37" y1="116.63" x2="407.37" y2="143.13"/><circle class="cls-1" cx="400.71" cy="129.7" r="3.69"/><line class="cls-1" x1="407.37" y1="116.63" x2="407.37" y2="143.13"/><line class="cls-1" x1="406.98" y1="130.3" x2="404.6" y2="130.3"/><rect class="cls-3" x="0.5" y="0.5" width="20.49" height="253.5"/><rect class="cls-3" x="0.5" y="0.5" width="460.5" height="21.13"/><rect class="cls-3" x="424.16" y="0.5" width="36.84" height="253.5"/><rect class="cls-3" x="0.5" y="236.63" width="460.5" height="17.37"/></g></svg>